<?xml version="1.0" encoding="UTF-8"?><svg id="a" xmlns="http://www.w3.org/2000/svg" viewBox="0 0 251.92 74.86"><defs><style>.b{fill:#fbcd18;}.b,.c{stroke-width:0px;}.c,.d{fill:gray;}.e{fill:#6b6b6b;stroke:gray;stroke-miterlimit:10;}.d{font-family:Consolas, Consolas;font-size:20px;}</style></defs><line class="e" x1=".5" y1="2.01" x2=".5" y2="68.51"/><line class="e" x1="20.94" y1="68.51" x2="20.94" y2="2.01"/><line class="e" x1="43.5" y1="2.01" x2="43.5" y2="68.51"/><line class="e" x1="63.17" y1="2.01" x2="63.17" y2="68.51"/><path class="b" d="m49.47,17.7c4.48-.38,7.2,1.27,6.65,5.93-.79,6.6-.81,13.63-3.29,19.61-4.78,11.51-20.55,15.81-32.54,9.97-10.57-5.15-14.86-19.11-9.3-30.25,3.6-7.21,12.43-10.12,21.11-6.97,6.68,2.43,9.62,8.56,7.7,16.06-1.69,6.59-10.77,9.57-15.47,4.66-1.54-1.6-2.83-4.71-1.48-7.56.23-.47,2.98-1.93,3.43-1.56,1.27,1.04.22,4.41,3.5,5.37,1.72.04,3.14-1.05,3.52-2.25.95-2.96,1.36-6.69-2.53-7.97-4.46-1.46-9.23-2.2-12.81,2.3l-1.3,2.44c-2.15,6.53-1.62,12.63,3.84,17.49,5.1,4.54,14.11,5.08,20.46,1.52.74-.42,4.31-3.38,5.55-6.49,2-5,1.75-9.09,2-11l.97-11.31Z"/><path class="c" d="m90.54,16.64h-7.73V3.88h7.73v1.46h-5.87v3.96h5.65v1.46h-5.65v4.39h5.87v1.48Z"/><path class="c" d="m102.99,12.83c0,.61-.13,1.15-.38,1.63-.25.47-.61.87-1.08,1.2s-1.03.57-1.69.74c-.66.17-1.4.25-2.21.25h-3.56V3.88h3.89c3.03,0,4.54,1.04,4.54,3.11,0,.69-.18,1.28-.52,1.78-.35.5-.92.86-1.71,1.1.37.07.72.18,1.04.33s.62.36.87.61.45.54.59.88.22.72.22,1.14Zm-2.41-5.61c0-.26-.04-.51-.12-.74-.08-.23-.23-.43-.44-.6s-.49-.3-.84-.4-.8-.15-1.34-.15h-1.91v3.99h1.85c.42,0,.81-.04,1.15-.13.34-.08.64-.21.88-.39.25-.18.44-.4.57-.66.13-.26.2-.58.2-.94Zm.45,5.66c0-.33-.07-.62-.22-.88s-.36-.48-.63-.66c-.28-.18-.62-.32-1.01-.42s-.85-.15-1.35-.15h-1.89v4.39h1.95c1.06,0,1.85-.19,2.37-.56.52-.37.78-.95.78-1.74Z"/><path class="c" d="m114.7,7.79c0,.52-.1,1.04-.31,1.55s-.53.97-.97,1.37-.99.73-1.67.98c-.68.25-1.49.38-2.43.38h-1.68v4.58h-1.85V3.88h3.83c.67,0,1.32.07,1.93.21.62.14,1.16.37,1.63.68s.84.72,1.12,1.21.42,1.1.42,1.81Zm-1.92.08c0-.82-.29-1.45-.86-1.88s-1.37-.65-2.4-.65h-1.89v5.25h1.73c1.1,0,1.94-.22,2.53-.67s.89-1.13.89-2.04Z"/><path class="c" d="m126.98,10.18c0,1.15-.14,2.14-.43,2.97s-.68,1.52-1.16,2.07c-.49.54-1.06.95-1.72,1.21-.65.26-1.35.4-2.07.4-.87,0-1.63-.15-2.28-.44s-1.19-.72-1.61-1.28-.74-1.24-.95-2.05c-.21-.8-.31-1.71-.31-2.72,0-1.13.14-2.12.43-2.95.28-.83.67-1.52,1.16-2.07s1.06-.95,1.71-1.21c.65-.26,1.34-.4,2.07-.4.87,0,1.63.15,2.28.45.65.3,1.19.73,1.62,1.28s.75,1.24.96,2.04c.21.8.32,1.7.32,2.71Zm-1.92.13c0-.75-.06-1.43-.18-2.06s-.32-1.16-.59-1.61-.62-.8-1.04-1.04-.94-.37-1.54-.37-1.08.13-1.5.4-.76.62-1.03,1.07c-.27.45-.47.98-.6,1.59-.13.61-.2,1.25-.2,1.94,0,.75.06,1.44.19,2.07.12.62.32,1.16.59,1.6.27.45.61.79,1.03,1.04s.93.37,1.53.37,1.08-.13,1.51-.4c.42-.26.77-.62,1.04-1.07.27-.45.48-.98.61-1.59s.2-1.25.2-1.94Z"/><path class="c" d="m138.04,16.64h-1.85V5.42h-5.57v11.22h-1.85V3.88h9.27v12.76Z"/><path class="c" d="m149.07,16.64h-7.73V3.88h7.73v1.46h-5.88v3.96h5.65v1.46h-5.65v4.39h5.88v1.48Z"/><path class="c" d="m154.05,3.88v9.65l5.62-9.65h1.76v12.76h-1.85V7.01l-5.61,9.64h-1.77V3.88h1.85Z"/><path class="c" d="m173.02,16.17c-1.09.42-2.23.63-3.42.63-1.92,0-3.39-.54-4.42-1.62s-1.54-2.67-1.54-4.78c0-1.02.14-1.95.43-2.77s.69-1.53,1.22-2.1c.53-.58,1.16-1.02,1.91-1.33.75-.31,1.59-.47,2.52-.47.63,0,1.22.05,1.76.15.54.1,1.06.26,1.56.46v1.71c-.49-.25-1-.45-1.53-.58-.53-.13-1.1-.2-1.73-.2s-1.21.11-1.73.34c-.52.22-.96.55-1.32.98s-.64.95-.83,1.56-.29,1.32-.29,2.1c0,1.65.36,2.9,1.07,3.74.71.84,1.76,1.26,3.14,1.26.58,0,1.14-.06,1.67-.19.53-.13,1.05-.3,1.54-.53v1.64Z"/><path class="c" d="m185.26,16.64h-2.33l-5.08-6.26v6.26h-1.85V3.88h1.85v5.93l4.98-5.93h2.19l-5.36,6.06,5.6,6.7Z"/><path class="c" d="m189.17,3.88v9.65l5.62-9.65h1.76v12.76h-1.85V7.01l-5.61,9.64h-1.77V3.88h1.85Z"/><path class="c" d="m200.88,3.88v9.65l5.62-9.65h1.76v12.76h-1.85V7.01l-5.61,9.64h-1.77V3.88h1.85Z"/><text class="d" transform="translate(80.81 68.81) scale(1.01 1)"><tspan x="0" y="0">В</tspan></text><path class="c" d="m104.42,68.33c-1.04.42-2.12.63-3.26.63-1.83,0-3.23-.54-4.21-1.62s-1.47-2.67-1.47-4.78c0-1.02.14-1.95.41-2.77.27-.83.66-1.53,1.16-2.1s1.11-1.02,1.82-1.33c.71-.31,1.51-.47,2.4-.47.6,0,1.16.05,1.67.15s1.01.26,1.49.46v1.71c-.47-.25-.95-.45-1.46-.58s-1.05-.2-1.64-.2-1.16.11-1.65.34c-.49.22-.91.55-1.25.98-.34.43-.61.95-.79,1.56-.19.62-.28,1.32-.28,2.1,0,1.65.34,2.9,1.02,3.74s1.68,1.26,2.99,1.26c.55,0,1.09-.06,1.59-.19.51-.13,1-.3,1.47-.53v1.64Z"/><path class="c" d="m116.78,68.81h-1.92l-.9-2.78h-5.39l-.91,2.78h-1.83l4.3-12.76h2.42l4.24,12.76Zm-3.33-4.34l-2.19-6.83-2.19,6.83h4.38Z"/><path class="c" d="m126.94,68.81h-1.76v-5.86h-5.44v5.86h-1.76v-12.76h1.76v5.4h5.44v-5.4h1.76v12.76Z"/><path class="c" d="m138.4,68.81h-2.22l-4.84-6.26v6.26h-1.76v-12.76h1.76v5.93l4.74-5.93h2.09l-5.11,6.06,5.34,6.7Z"/><path class="c" d="m149.48,57.53h-3.83v11.28h-1.78v-11.28h-3.83v-1.48h9.45v1.48Z"/><path class="c" d="m164.35,68.81h-1.55v-11.22h-4.66v11.22h-1.55v-12.76h7.76v12.76Z"/><path class="c" d="m173.57,68.81h-6.46v-12.76h6.46v1.46h-4.91v3.96h4.72v1.46h-4.72v4.39h4.91v1.48Z"/><path class="c" d="m184.2,57.53h-3.37v11.28h-1.57v-11.28h-3.37v-1.48h8.3v1.48Z"/><path class="c" d="m193.16,68.81h-6.46v-12.76h6.46v1.46h-4.91v3.96h4.72v1.46h-4.72v4.39h4.91v1.48Z"/><path class="c" d="m203.58,59.96c0,.52-.09,1.04-.26,1.55-.17.51-.44.97-.81,1.37-.37.4-.83.73-1.4.98-.57.25-1.25.38-2.04.38h-1.41v4.58h-1.55v-12.76h3.2c.56,0,1.1.07,1.62.21.52.14.97.37,1.36.68.39.31.7.71.93,1.21.23.49.35,1.1.35,1.81Zm-1.61.08c0-.82-.24-1.45-.72-1.88-.48-.44-1.15-.65-2-.65h-1.58v5.25h1.44c.92,0,1.62-.22,2.12-.67s.74-1.13.74-2.04Z"/><path class="c" d="m207.46,61.29h1.83c.7,0,1.31.09,1.84.28s.97.44,1.33.77c.36.32.63.71.81,1.14.18.44.27.91.27,1.42,0,.61-.11,1.15-.32,1.63-.21.49-.51.9-.9,1.24-.39.34-.85.6-1.39.78-.54.18-1.15.27-1.81.27h-3.22v-12.76h6.84v1.46h-5.29v3.78Zm4.45,3.72c0-.35-.05-.66-.16-.94-.1-.28-.27-.52-.49-.72-.22-.2-.5-.36-.84-.46s-.75-.16-1.24-.16h-1.73v4.62h1.78c.88,0,1.55-.2,2-.61.45-.41.67-.98.67-1.72Z"/><path class="c" d="m215.7,67.27c.19.05.36.09.52.12.16.03.32.04.47.04.23,0,.45-.04.65-.12.2-.08.39-.22.57-.41s.36-.46.53-.78c.17-.33.34-.73.5-1.21l-4.12-8.85h1.78l2.24,4.92.82,1.87h.02l.61-1.77,1.75-5.02h1.63l-3.42,9.48c-.17.48-.36.93-.56,1.35-.2.42-.43.79-.68,1.1-.26.31-.55.56-.88.74-.33.18-.72.27-1.15.27-.2,0-.42-.02-.64-.05-.22-.03-.46-.1-.71-.19l.07-1.48Z"/><path class="c" d="m232.96,59.96c0,.52-.09,1.04-.26,1.55-.17.51-.44.97-.81,1.37-.37.4-.83.73-1.4.98-.57.25-1.25.38-2.04.38h-1.41v4.58h-1.55v-12.76h3.2c.56,0,1.1.07,1.62.21.52.14.97.37,1.36.68s.7.71.93,1.21c.23.49.35,1.1.35,1.81Zm-1.61.08c0-.82-.24-1.45-.72-1.88-.48-.44-1.15-.65-2-.65h-1.58v5.25h1.44c.92,0,1.62-.22,2.12-.67.5-.45.74-1.13.74-2.04Z"/><path class="c" d="m237.51,57.57v11.24h-1.57v-12.76h6.54v1.52h-4.97Z"/><path class="c" d="m251.92,68.81h-6.46v-12.76h6.46v1.46h-4.91v3.96h4.72v1.46h-4.72v4.39h4.91v1.48Z"/><path class="c" d="m83.31,41.27c.2.05.39.09.57.12.18.03.35.04.51.04.25,0,.49-.04.71-.12.22-.08.43-.22.63-.41.2-.2.39-.46.58-.78.18-.33.37-.73.55-1.21l-4.5-8.85h1.95l2.45,4.92.89,1.87h.02l.67-1.77,1.91-5.02h1.79l-3.73,9.48c-.19.48-.39.93-.61,1.35-.22.42-.47.79-.75,1.1s-.6.56-.96.74c-.36.18-.78.27-1.26.27-.22,0-.45-.02-.7-.05-.24-.03-.5-.1-.77-.19l.08-1.48Z"/><path class="c" d="m102.16,42.81h-1.69v-5.86h-5.22v5.86h-1.69v-12.76h1.69v5.4h5.22v-5.4h1.69v12.76Z"/><path class="c" d="m106.03,30.05v9.65l5.14-9.65h1.61v12.76h-1.69v-9.64l-5.13,9.64h-1.62v-12.76h1.69Z"/><path class="c" d="m123.56,38.99c0,.61-.12,1.15-.35,1.62-.23.47-.56.87-.99,1.2-.43.32-.94.57-1.55.74-.6.17-1.28.25-2.02.25h-3.25v-12.76h3.55c2.77,0,4.15,1.04,4.15,3.11,0,.69-.16,1.28-.48,1.78-.32.49-.84.86-1.56,1.1.34.06.65.18.96.33.3.16.56.36.79.61.23.25.41.54.54.88.13.34.2.72.2,1.14Zm-2.2-5.61c0-.26-.04-.51-.11-.74s-.21-.43-.4-.6-.45-.3-.77-.4c-.32-.1-.73-.15-1.23-.15h-1.75v3.99h1.69c.39,0,.74-.04,1.05-.13.31-.09.58-.22.81-.39.22-.18.4-.4.52-.66s.19-.58.19-.94Zm.41,5.66c0-.33-.07-.62-.2-.88-.13-.26-.33-.48-.58-.66-.25-.18-.56-.32-.93-.41s-.77-.15-1.23-.15h-1.73v4.39h1.79c.97,0,1.69-.19,2.17-.56s.71-.95.71-1.74Z"/><path class="c" d="m133.57,42.81h-7.06v-12.76h7.06v1.46h-5.37v3.96h5.16v1.46h-5.16v4.39h5.37v1.48Z"/><path class="c" d="m144.96,33.95c0,.52-.09,1.04-.29,1.55-.19.51-.48.97-.88,1.37-.4.4-.91.73-1.53.98-.62.25-1.36.38-2.22.38h-1.54v4.58h-1.69v-12.76h3.5c.61,0,1.2.07,1.77.21s1.06.37,1.49.68.77.72,1.02,1.21c.25.5.38,1.1.38,1.81Zm-1.76.08c0-.82-.26-1.45-.78-1.88s-1.25-.65-2.19-.65h-1.73v5.25h1.58c1,0,1.77-.22,2.31-.67s.81-1.13.81-2.04Z"/><path class="c" d="m155.46,42.33c-1,.42-2.04.63-3.13.63-1.75,0-3.1-.54-4.04-1.62-.94-1.08-1.41-2.67-1.41-4.78,0-1.02.13-1.95.39-2.77s.63-1.53,1.11-2.1,1.06-1.02,1.75-1.33c.68-.31,1.45-.47,2.3-.47.58,0,1.11.05,1.61.15s.97.26,1.43.46v1.71c-.45-.25-.92-.45-1.4-.58s-1.01-.2-1.58-.2-1.11.11-1.58.34-.87.55-1.2.98-.58.95-.76,1.56c-.18.62-.27,1.32-.27,2.1,0,1.65.33,2.9.98,3.74.65.84,1.61,1.26,2.87,1.26.53,0,1.04-.06,1.53-.19.49-.13.96-.3,1.41-.53v1.64Z"/><path class="c" d="m159.52,30.05v9.65l5.14-9.65h1.61v12.76h-1.69v-9.64l-5.13,9.64h-1.62v-12.76h1.69Z"/><path class="c" d="m177.28,31.53h-3.68v11.28h-1.71v-11.28h-3.68v-1.48h9.06v1.48Z"/><path class="c" d="m187.07,42.81h-7.06v-12.76h7.06v1.46h-5.37v3.96h5.16v1.46h-5.16v4.39h5.37v1.48Z"/><path class="c" d="m198.68,31.53h-3.68v11.28h-1.71v-11.28h-3.68v-1.48h9.06v1.48Z"/><polygon class="c" points="205.34 .01 202.94 3.38 204.67 3.38 207.19 .01 205.34 .01"/><polygon class="c" points="158.33 0 155.93 3.36 157.66 3.36 160.18 0 158.33 0"/><polygon class="c" points="152.33 61 149.93 64.36 151.66 64.36 154.18 61 152.33 61"/></svg>