<?xml version="1.0" encoding="UTF-8"?><svg id="b" xmlns="http://www.w3.org/2000/svg" width="346.92" height="224.87" xmlns:xlink="http://www.w3.org/1999/xlink" viewBox="0 0 346.92 224.87"><defs><style>.p{fill:url(#e);}.p,.q,.r,.s,.t,.u,.v,.w,.x{stroke-width:0px;}.q{fill:url(#g);}.r{fill:url(#i);}.s{fill:url(#l);}.t{fill:url(#h);}.u{fill:url(#j);}.v{fill:url(#d);}.w{fill:url(#f);}.x{fill:url(#k);}.y{fill:url(#m);filter:url(#n);stroke:#fff;stroke-miterlimit:10;stroke-width:1.42px;}</style><linearGradient id="d" x1="348.73" y1="-97.92" x2="343.14" y2="75.27" gradientTransform="translate(48.68 382.54) rotate(-90)" gradientUnits="userSpaceOnUse"><stop offset=".02" stop-color="#b5b3b6"/><stop offset=".46" stop-color="#dddcde"/><stop offset="1" stop-color="#f1eff2"/></linearGradient><linearGradient id="e" x1="348.73" y1="-11.17" x2="343.14" y2="162.02" xlink:href="#d"/><linearGradient id="f" x1="348.73" y1="75.58" x2="343.14" y2="248.77" gradientTransform="translate(48.68 382.54) rotate(-90)" gradientUnits="userSpaceOnUse"><stop offset=".02" stop-color="#d2d0d2"/><stop offset=".51" stop-color="#dddcde"/><stop offset="1" stop-color="#f1eff2"/></linearGradient><linearGradient id="g" x1="348.73" y1="162.33" x2="343.14" y2="335.52" xlink:href="#d"/><linearGradient id="h" x1="285.54" y1="-54.18" x2="279.95" y2="119.01" gradientTransform="translate(48.68 382.54) rotate(-90)" gradientUnits="userSpaceOnUse"><stop offset=".12" stop-color="#dddcde"/><stop offset="1" stop-color="#f1eff2"/></linearGradient><linearGradient id="i" x1="285.54" y1="32.57" x2="279.95" y2="205.76" xlink:href="#d"/><linearGradient id="j" x1="284.79" y1="229.25" x2="281.89" y2="319.01" xlink:href="#d"/><linearGradient id="k" x1="210.65" y1="75.9" x2="205.06" y2="249.09" xlink:href="#f"/><linearGradient id="l" x1="210.65" y1="162.65" x2="205.06" y2="335.84" xlink:href="#d"/><linearGradient id="m" x1="285.38" y1="119.37" x2="279.79" y2="292.55" gradientTransform="translate(48.68 382.54) rotate(-90)" gradientUnits="userSpaceOnUse"><stop offset=".09" stop-color="#dedddf"/><stop offset=".66" stop-color="#f1eff2"/></linearGradient><filter id="n" filterUnits="userSpaceOnUse"><feOffset dx="3.39" dy="3.39"/><feGaussianBlur result="o" stdDeviation="7.27"/><feFlood flood-color="#000" flood-opacity=".15"/><feComposite in2="o" operator="in"/><feComposite in="SourceGraphic"/></filter></defs><g id="c"><polygon class="v" points="0 0 0 50 43.3 75 86.6 50 86.6 0 0 0"/><polygon class="p" points="86.75 0 86.75 50 130.05 75 173.35 50 173.35 0 86.75 0"/><polygon class="w" points="173.5 0 173.5 50 216.8 75 260.1 50 260.1 0 173.5 0"/><polygon class="q" points="346.85 0 346.85 50 303.55 75 260.25 50 260.25 0 346.85 0"/><polygon class="t" points="43.37 74.98 43.37 124.98 86.67 149.98 129.97 124.98 129.97 74.98 86.67 49.98 43.37 74.98"/><polygon class="r" points="130.12 74.98 130.12 124.98 173.42 149.98 216.72 124.98 216.72 74.98 173.42 49.98 130.12 74.98"/><polygon class="u" points="346.92 149.98 303.62 124.98 303.62 74.98 346.92 49.98 346.92 149.98"/><polygon class="x" points="173.44 149.87 173.44 199.87 216.75 224.87 260.05 199.87 260.05 149.87 216.75 124.87 173.44 149.87"/><polygon class="s" points="260.19 149.87 260.19 199.87 303.5 224.87 346.8 199.87 346.8 149.87 303.5 124.87 260.19 149.87"/><polygon class="y" points="216.91 75.14 216.91 125.13 260.21 150.13 303.51 125.13 303.51 75.14 260.21 50.14 216.91 75.14"/></g></svg>