<?xml version="1.0" encoding="UTF-8"?><svg id="b" xmlns="http://www.w3.org/2000/svg" width="346.92" height="224.87" xmlns:xlink="http://www.w3.org/1999/xlink" viewBox="0 0 346.92 224.87"><defs><style>.p{fill:url(#e);}.p,.q,.r,.s,.t,.u,.v,.w,.x{stroke-width:0px;}.q{fill:url(#g);}.r{fill:url(#i);}.s{fill:url(#l);}.t{fill:url(#h);}.u{fill:url(#j);}.v{fill:url(#d);}.w{fill:url(#f);}.x{fill:url(#k);}.y{fill:url(#m);filter:url(#n);stroke:#fff;stroke-miterlimit:10;stroke-width:1.42px;}</style><linearGradient id="d" x1="348.73" y1="-97.92" x2="343.14" y2="75.27" gradientTransform="translate(298.24 -157.68) rotate(90)" gradientUnits="userSpaceOnUse"><stop offset=".02" stop-color="#b5b3b6"/><stop offset=".46" stop-color="#dddcde"/><stop offset="1" stop-color="#f1eff2"/></linearGradient><linearGradient id="e" x1="348.73" y1="-11.17" x2="343.14" y2="162.02" xlink:href="#d"/><linearGradient id="f" x1="348.73" y1="75.58" x2="343.14" y2="248.77" gradientTransform="translate(298.24 -157.68) rotate(90)" gradientUnits="userSpaceOnUse"><stop offset=".02" stop-color="#d2d0d2"/><stop offset=".51" stop-color="#dddcde"/><stop offset="1" stop-color="#f1eff2"/></linearGradient><linearGradient id="g" x1="348.73" y1="162.33" x2="343.14" y2="335.52" xlink:href="#d"/><linearGradient id="h" x1="285.54" y1="-54.18" x2="279.95" y2="119.01" gradientTransform="translate(298.24 -157.68) rotate(90)" gradientUnits="userSpaceOnUse"><stop offset=".12" stop-color="#dddcde"/><stop offset="1" stop-color="#f1eff2"/></linearGradient><linearGradient id="i" x1="285.54" y1="32.57" x2="279.95" y2="205.76" xlink:href="#d"/><linearGradient id="j" x1="284.79" y1="229.25" x2="281.89" y2="319.01" xlink:href="#d"/><linearGradient id="k" x1="210.65" y1="75.9" x2="205.06" y2="249.09" xlink:href="#f"/><linearGradient id="l" x1="210.65" y1="162.65" x2="205.06" y2="335.84" xlink:href="#d"/><linearGradient id="m" x1="285.38" y1="119.37" x2="279.79" y2="292.55" gradientTransform="translate(298.24 -157.68) rotate(90)" gradientUnits="userSpaceOnUse"><stop offset=".09" stop-color="#dedddf"/><stop offset=".66" stop-color="#f1eff2"/></linearGradient><filter id="n" filterUnits="userSpaceOnUse"><feOffset dx="3.39" dy="3.39"/><feGaussianBlur result="o" stdDeviation="7.27"/><feFlood flood-color="#000" flood-opacity=".15"/><feComposite in2="o" operator="in"/><feComposite in="SourceGraphic"/></filter></defs><g id="c"><polygon class="v" points="346.92 224.87 346.92 174.87 303.62 149.87 260.31 174.87 260.31 224.87 346.92 224.87"/><polygon class="p" points="260.17 224.87 260.17 174.87 216.87 149.87 173.56 174.87 173.56 224.87 260.17 224.87"/><polygon class="w" points="173.42 224.87 173.42 174.87 130.12 149.87 86.81 174.87 86.81 224.87 173.42 224.87"/><polygon class="q" points=".06 224.87 .06 174.87 43.37 149.87 86.67 174.87 86.67 224.87 .06 224.87"/><polygon class="t" points="303.55 149.89 303.55 99.89 260.25 74.89 216.95 99.89 216.95 149.89 260.25 174.89 303.55 149.89"/><polygon class="r" points="216.8 149.89 216.8 99.89 173.5 74.89 130.2 99.89 130.2 149.89 173.5 174.89 216.8 149.89"/><polygon class="u" points="0 74.89 43.3 99.89 43.3 149.89 0 174.89 0 74.89"/><polygon class="x" points="173.47 75 173.47 25 130.17 0 86.87 25 86.87 75 130.17 100 173.47 75"/><polygon class="s" points="86.72 75 86.72 25 43.42 0 .12 25 .12 75 43.42 100 86.72 75"/><polygon class="y" points="130.01 149.73 130.01 99.73 86.71 74.73 43.41 99.73 43.41 149.73 86.71 174.73 130.01 149.73"/></g></svg>